<?xml version="1.0" encoding="UTF-8"?>
<svg version="1.1" xmlns="http://www.w3.org/2000/svg" width="512" height="512">
<path d="M0 0 C1.51787109 0.85102295 1.51787109 0.85102295 3.06640625 1.71923828 C11.41515196 6.41479745 19.71542037 11.19230787 28 16 C29.06412109 16.61746094 30.12824219 17.23492187 31.22460938 17.87109375 C37.18063805 21.33187583 43.12866383 24.80621437 49.07324219 28.28662109 C54.0050806 31.17381178 58.93955816 34.05647417 63.875 36.9375 C64.86016602 37.51258301 65.84533203 38.08766602 66.86035156 38.68017578 C75.32003943 43.61339097 83.80272062 48.50625904 92.28857422 53.39428711 C100.53055623 58.14464348 108.75110349 62.93075566 116.96313477 67.73266602 C123.1824732 71.36617901 129.41801732 74.97009634 135.66455078 78.55664062 C145.68435113 84.31469984 155.68063305 90.11257559 165.625 96 C166.64972412 96.59868896 167.67444824 97.19737793 168.73022461 97.81420898 C180.47388097 104.81232193 189.00453017 112.62692295 193.46875 125.88671875 C196.84977921 139.33625405 193.98154126 151.25911232 187 163 C181.24344388 172.19097605 169.81961501 177.42085801 160.65325928 182.56448364 C157.55467339 184.3035098 154.46572399 186.05955244 151.375 187.8125 C150.75011688 188.16627213 150.12523376 188.52004425 149.48141479 188.88453674 C143.58305742 192.22679182 137.72471582 195.63587387 131.875 199.0625 C123.60034494 203.90487386 115.30809018 208.71521022 107 213.5 C94.63971476 220.62075886 82.31532595 227.80183424 70 235 C56.60435637 242.82959897 43.19466911 250.63305438 29.74658203 258.37231445 C24.27736459 261.52231719 18.81762143 264.68704158 13.375 267.8828125 C12.30378906 268.51123047 11.23257813 269.13964844 10.12890625 269.78710938 C8.1142379 270.97050695 6.1010919 272.15650203 4.08984375 273.34570312 C-8.90141433 280.97418449 -19.5089929 286.65834254 -35.046875 283.3515625 C-45.31972247 279.95629935 -53.04575521 273.64333282 -58 264 C-61.20578523 257.21167749 -62.58506737 251.55047884 -62.50793457 244.06385803 C-62.51417453 243.11569086 -62.5204145 242.16752369 -62.52684355 241.19062418 C-62.54268773 238.04096713 -62.53020279 234.89209324 -62.51757812 231.74243164 C-62.52300308 229.47311454 -62.53012783 227.20380096 -62.53881836 224.93449402 C-62.55701107 218.78982717 -62.55000047 212.6454298 -62.53730202 206.50075841 C-62.5271522 200.05969741 -62.53657332 193.61865898 -62.54284668 187.17759705 C-62.55058315 175.66906076 -62.53817629 164.16066182 -62.51780933 152.65214705 C-62.49994431 142.23524127 -62.50304111 131.81851387 -62.52148438 121.40161133 C-62.5429319 109.28234034 -62.5508362 97.16320922 -62.53903532 85.04391569 C-62.53281166 78.6368443 -62.53193372 72.22989553 -62.54518127 65.82283211 C-62.55677042 59.79722609 -62.54865769 53.77195551 -62.52560425 47.74638557 C-62.52033334 45.54018713 -62.52180307 43.33396027 -62.53065491 41.12777328 C-62.58616012 25.88373892 -62.09659985 13.57716126 -51 2 C-34.71632007 -13.05361778 -17.88096504 -10.08661204 0 0 Z " fill="#2596D3" transform="translate(286,118)"/>
<path d="M0 0 C1.84411996 1.07191772 3.68922209 2.14214701 5.53515625 3.2109375 C6.99526123 4.05736816 6.99526123 4.05736816 8.48486328 4.92089844 C13.93531371 8.04952443 19.43808036 11.08355053 24.9375 14.125 C34.30527445 19.31371168 43.64776077 24.54372612 52.96435547 29.82373047 C61.36942218 34.58527936 69.79658816 39.30685467 78.22900391 44.01977539 C79.21562012 44.57141357 80.20223633 45.12305176 81.21875 45.69140625 C82.51522461 46.41565796 82.51522461 46.41565796 83.83789062 47.15454102 C87.08840581 48.9833927 90.32485298 50.83595985 93.5625 52.6875 C93.74932197 74.37507299 93.89042585 96.06251346 93.97699738 117.75072765 C94.01826134 127.82082696 94.07452479 137.89042652 94.16601562 147.96020508 C94.24571472 156.73632474 94.29735644 165.51208253 94.31520796 174.28855401 C94.32564461 178.93653518 94.35019545 183.58348106 94.40834045 188.2311306 C94.46262278 192.6054463 94.47939745 196.97830002 94.46736145 201.35292053 C94.46956334 202.95862079 94.48549196 204.56436964 94.5161438 206.16977882 C94.73677075 218.32075373 94.73677075 218.32075373 91.8191061 221.71665478 C89.75746356 223.03054987 87.86402328 223.88561822 85.5625 224.6875 C84.63638916 225.22560303 83.71027832 225.76370605 82.75610352 226.31811523 C81.90975342 226.78934814 81.06340332 227.26058105 80.19140625 227.74609375 C79.21800293 228.28951416 78.24459961 228.83293457 77.24169922 229.39282227 C75.69893311 230.25025024 75.69893311 230.25025024 74.125 231.125 C71.88930224 232.37235878 69.65362576 233.61975569 67.41796875 234.8671875 C66.28020996 235.50108398 65.14245117 236.13498047 63.97021484 236.78808594 C58.62234974 239.76891346 53.27960887 242.75887179 47.9375 245.75 C46.90246338 246.32935303 45.86742676 246.90870605 44.80102539 247.50561523 C37.87868488 251.38288394 30.96776813 255.27992293 24.0625 259.1875 C22.18622729 260.24744784 20.30992498 261.30734327 18.43359375 262.3671875 C15.37276621 264.09642737 12.31390899 265.82893275 9.25830078 267.56738281 C5.88338061 269.48748772 2.50445378 271.40038837 -0.875 273.3125 C-1.91140625 273.90482422 -2.9478125 274.49714844 -4.015625 275.10742188 C-15.39219392 281.52631168 -25.94510205 285.56452526 -39.09765625 282.40625 C-49.17501879 279.31069957 -56.28321182 272.94228877 -62.11328125 264.2890625 C-65.70129283 257.24004859 -66.88010031 250.73211365 -66.83190918 242.87834167 C-66.84104584 241.4584309 -66.84104584 241.4584309 -66.85036707 240.00983506 C-66.8669251 236.85954107 -66.8622315 233.70965446 -66.85742188 230.55932617 C-66.86476639 228.29177941 -66.87335373 226.02423638 -66.88308716 223.75669861 C-66.90527201 217.61196048 -66.90823532 211.46735659 -66.90633965 205.32258391 C-66.9062198 200.18607787 -66.91478978 195.04960012 -66.92311716 189.91310197 C-66.94343875 177.09840387 -66.94450543 164.28380418 -66.93731004 151.46909938 C-66.93173712 140.36172444 -66.9525541 129.25458033 -66.98567051 118.14725932 C-67.01947362 106.72019926 -67.03409391 95.29329371 -67.02995348 83.86617452 C-67.02788902 77.45956826 -67.03331884 71.05319191 -67.05784607 64.64662743 C-67.08015966 58.61935489 -67.07819645 52.59256165 -67.05791855 46.56528664 C-67.05451667 44.35949962 -67.05956191 42.15368004 -67.07390213 39.94793701 C-67.16419449 25.02404176 -66.35312232 13.58999136 -56.38671875 1.65625 C-39.49033055 -15.40944069 -18.71085023 -11.06011735 0 0 Z " fill="#00283A" transform="translate(98.4375,119.3125)"/>
</svg>
